<svg width="33" height="33" viewBox="0 0 33 33" fill="none" xmlns="http://www.w3.org/2000/svg">
<g clip-path="url(#clip0_517_1290)">
<path d="M16.9199 32.0625C25.7565 32.0625 32.9199 24.8991 32.9199 16.0625C32.9199 7.22594 25.7565 0.0625 16.9199 0.0625C8.08337 0.0625 0.919922 7.22594 0.919922 16.0625C0.919922 24.8991 8.08337 32.0625 16.9199 32.0625Z" fill="#3B5998"/>
<path d="M22.9199 32.0625V20.0625H26.9199L27.9199 15.0625H22.9199V13.0625C22.9199 11.0625 23.9219 10.0625 25.9199 10.0625H27.9199V5.0625C26.9199 5.0625 25.6799 5.0625 23.9199 5.0625C20.2449 5.0625 17.9199 7.9435 17.9199 12.0625V15.0625H13.9199V20.0625H17.9199V32.0625H22.9199Z" fill="white"/>
</g>
<defs>
<clipPath id="clip0_517_1290">
<rect width="32" height="32" fill="white" transform="translate(0.919922 0.0625)"/>
</clipPath>
</defs>
</svg>
