<svg width="31" height="31" viewBox="0 0 31 31" fill="none" xmlns="http://www.w3.org/2000/svg">
<circle cx="15.4238" cy="15.207" r="14.5" fill="#454444" stroke="white"/>
<path d="M13.9579 20.0763V19.8548C13.9636 18.8263 14.0602 18.0082 14.2477 17.4002C14.4409 16.7923 14.7136 16.3036 15.0659 15.9343C15.4181 15.5593 15.8471 15.2156 16.3528 14.9031C16.6994 14.6871 17.0091 14.4513 17.2818 14.1957C17.5602 13.9343 17.7789 13.6445 17.938 13.3263C18.0971 13.0025 18.1767 12.6417 18.1767 12.244C18.1767 11.7951 18.0716 11.4059 17.8613 11.0763C17.6511 10.7468 17.367 10.4911 17.0091 10.3093C16.6568 10.1275 16.2619 10.0366 15.8244 10.0366C15.421 10.0366 15.0375 10.1246 14.6738 10.3008C14.3159 10.4712 14.0176 10.7326 13.7789 11.0849C13.546 11.4315 13.4153 11.8718 13.3869 12.4059H10.3528C10.3812 11.3263 10.6426 10.4229 11.1369 9.69567C11.6369 8.96839 12.296 8.42294 13.1142 8.0593C13.938 7.69567 14.8471 7.51385 15.8414 7.51385C16.9267 7.51385 17.8812 7.70419 18.7051 8.08487C19.5346 8.46555 20.1795 9.00817 20.6397 9.71271C21.1056 10.4116 21.3386 11.2411 21.3386 12.2013C21.3386 12.8491 21.2335 13.4286 21.0233 13.94C20.8187 14.4513 20.5261 14.9059 20.1454 15.3036C19.7647 15.7013 19.313 16.0565 18.7903 16.369C18.3301 16.6531 17.9522 16.9485 17.6568 17.2553C17.367 17.5621 17.1511 17.9229 17.0091 18.3377C16.8727 18.7468 16.8017 19.2525 16.796 19.8548V20.0763H13.9579ZM15.4409 25.3945C14.9295 25.3945 14.4892 25.2127 14.1199 24.8491C13.7505 24.4854 13.5659 24.0423 13.5659 23.5195C13.5659 23.0082 13.7505 22.5707 14.1199 22.207C14.4892 21.8434 14.9295 21.6616 15.4409 21.6616C15.9466 21.6616 16.3841 21.8434 16.7534 22.207C17.1284 22.5707 17.3159 23.0082 17.3159 23.5195C17.3159 23.8661 17.2278 24.1815 17.0517 24.4656C16.8812 24.7496 16.6539 24.9769 16.3699 25.1474C16.0914 25.3121 15.7818 25.3945 15.4409 25.3945Z" fill="white"/>
</svg>
