<svg width="22" height="16" viewBox="0 0 22 16" fill="none" xmlns="http://www.w3.org/2000/svg">
<path fill-rule="evenodd" clip-rule="evenodd" d="M0 0H21.0868V15.062H0V0Z" fill="url(#paint0_linear_5402_912)"/>
<path fill-rule="evenodd" clip-rule="evenodd" d="M0 0H21.0868V1.00413H0V0ZM0 2.00827H21.0868V3.0124H0V2.00827ZM0 4.01654H21.0868V5.02067H0V4.01654ZM0 6.0248H21.0868V7.02894H0V6.0248ZM0 8.03307H21.0868V9.03721H0V8.03307ZM0 10.0413H21.0868V11.0455H0V10.0413ZM0 12.0496H21.0868V13.0537H0V12.0496ZM0 14.0579H21.0868V15.062H0V14.0579Z" fill="url(#paint1_linear_5402_912)"/>
<path fill-rule="evenodd" clip-rule="evenodd" d="M0 0H9.03721V7.02894H0V0Z" fill="url(#paint2_linear_5402_912)"/>
<path fill-rule="evenodd" clip-rule="evenodd" d="M1.50597 2.0083C1.22869 2.0083 1.00391 1.78352 1.00391 1.50623C1.00391 1.22895 1.22869 1.00417 1.50597 1.00417C1.78326 1.00417 2.00804 1.22895 2.00804 1.50623C2.00804 1.78352 1.78326 2.0083 1.50597 2.0083ZM3.51424 2.0083C3.23696 2.0083 3.01217 1.78352 3.01217 1.50623C3.01217 1.22895 3.23696 1.00417 3.51424 1.00417C3.79153 1.00417 4.01631 1.22895 4.01631 1.50623C4.01631 1.78352 3.79153 2.0083 3.51424 2.0083ZM5.52251 2.0083C5.24523 2.0083 5.02044 1.78352 5.02044 1.50623C5.02044 1.22895 5.24523 1.00417 5.52251 1.00417C5.79979 1.00417 6.02458 1.22895 6.02458 1.50623C6.02458 1.78352 5.79979 2.0083 5.52251 2.0083ZM7.53078 2.0083C7.25349 2.0083 7.02871 1.78352 7.02871 1.50623C7.02871 1.22895 7.25349 1.00417 7.53078 1.00417C7.80806 1.00417 8.03284 1.22895 8.03284 1.50623C8.03284 1.78352 7.80806 2.0083 7.53078 2.0083ZM2.51011 3.01243C2.23282 3.01243 2.00804 2.78765 2.00804 2.51037C2.00804 2.23308 2.23282 2.0083 2.51011 2.0083C2.78739 2.0083 3.01217 2.23308 3.01217 2.51037C3.01217 2.78765 2.78739 3.01243 2.51011 3.01243ZM4.51838 3.01243C4.24109 3.01243 4.01631 2.78765 4.01631 2.51037C4.01631 2.23308 4.24109 2.0083 4.51838 2.0083C4.79566 2.0083 5.02044 2.23308 5.02044 2.51037C5.02044 2.78765 4.79566 3.01243 4.51838 3.01243ZM6.52664 3.01243C6.24936 3.01243 6.02458 2.78765 6.02458 2.51037C6.02458 2.23308 6.24936 2.0083 6.52664 2.0083C6.80393 2.0083 7.02871 2.23308 7.02871 2.51037C7.02871 2.78765 6.80393 3.01243 6.52664 3.01243ZM7.53078 4.01657C7.25349 4.01657 7.02871 3.79178 7.02871 3.5145C7.02871 3.23722 7.25349 3.01243 7.53078 3.01243C7.80806 3.01243 8.03284 3.23722 8.03284 3.5145C8.03284 3.79178 7.80806 4.01657 7.53078 4.01657ZM5.52251 4.01657C5.24523 4.01657 5.02044 3.79178 5.02044 3.5145C5.02044 3.23722 5.24523 3.01243 5.52251 3.01243C5.79979 3.01243 6.02458 3.23722 6.02458 3.5145C6.02458 3.79178 5.79979 4.01657 5.52251 4.01657ZM3.51424 4.01657C3.23696 4.01657 3.01217 3.79178 3.01217 3.5145C3.01217 3.23722 3.23696 3.01243 3.51424 3.01243C3.79153 3.01243 4.01631 3.23722 4.01631 3.5145C4.01631 3.79178 3.79153 4.01657 3.51424 4.01657ZM1.50597 4.01657C1.22869 4.01657 1.00391 3.79178 1.00391 3.5145C1.00391 3.23722 1.22869 3.01243 1.50597 3.01243C1.78326 3.01243 2.00804 3.23722 2.00804 3.5145C2.00804 3.79178 1.78326 4.01657 1.50597 4.01657ZM2.51011 5.0207C2.23282 5.0207 2.00804 4.79592 2.00804 4.51863C2.00804 4.24135 2.23282 4.01657 2.51011 4.01657C2.78739 4.01657 3.01217 4.24135 3.01217 4.51863C3.01217 4.79592 2.78739 5.0207 2.51011 5.0207ZM4.51838 5.0207C4.24109 5.0207 4.01631 4.79592 4.01631 4.51863C4.01631 4.24135 4.24109 4.01657 4.51838 4.01657C4.79566 4.01657 5.02044 4.24135 5.02044 4.51863C5.02044 4.79592 4.79566 5.0207 4.51838 5.0207ZM6.52664 5.0207C6.24936 5.0207 6.02458 4.79592 6.02458 4.51863C6.02458 4.24135 6.24936 4.01657 6.52664 4.01657C6.80393 4.01657 7.02871 4.24135 7.02871 4.51863C7.02871 4.79592 6.80393 5.0207 6.52664 5.0207ZM7.53078 6.02484C7.25349 6.02484 7.02871 5.80005 7.02871 5.52277C7.02871 5.24548 7.25349 5.0207 7.53078 5.0207C7.80806 5.0207 8.03284 5.24548 8.03284 5.52277C8.03284 5.80005 7.80806 6.02484 7.53078 6.02484ZM5.52251 6.02484C5.24523 6.02484 5.02044 5.80005 5.02044 5.52277C5.02044 5.24548 5.24523 5.0207 5.52251 5.0207C5.79979 5.0207 6.02458 5.24548 6.02458 5.52277C6.02458 5.80005 5.79979 6.02484 5.52251 6.02484ZM3.51424 6.02484C3.23696 6.02484 3.01217 5.80005 3.01217 5.52277C3.01217 5.24548 3.23696 5.0207 3.51424 5.0207C3.79153 5.0207 4.01631 5.24548 4.01631 5.52277C4.01631 5.80005 3.79153 6.02484 3.51424 6.02484ZM1.50597 6.02484C1.22869 6.02484 1.00391 5.80005 1.00391 5.52277C1.00391 5.24548 1.22869 5.0207 1.50597 5.0207C1.78326 5.0207 2.00804 5.24548 2.00804 5.52277C2.00804 5.80005 1.78326 6.02484 1.50597 6.02484Z" fill="url(#paint3_linear_5402_912)"/>
<defs>
<linearGradient id="paint0_linear_5402_912" x1="221.412" y1="0" x2="221.412" y2="225.93" gradientUnits="userSpaceOnUse">
<stop stop-color="white"/>
<stop offset="1" stop-color="#F0F0F0"/>
</linearGradient>
<linearGradient id="paint1_linear_5402_912" x1="221.412" y1="0" x2="221.412" y2="225.93" gradientUnits="userSpaceOnUse">
<stop stop-color="#D02F44"/>
<stop offset="1" stop-color="#B12537"/>
</linearGradient>
<linearGradient id="paint2_linear_5402_912" x1="94.8907" y1="0" x2="94.8907" y2="105.434" gradientUnits="userSpaceOnUse">
<stop stop-color="#46467F"/>
<stop offset="1" stop-color="#3C3C6D"/>
</linearGradient>
<linearGradient id="paint3_linear_5402_912" x1="74.8078" y1="1.00417" x2="74.8078" y2="76.3142" gradientUnits="userSpaceOnUse">
<stop stop-color="white"/>
<stop offset="1" stop-color="#F0F0F0"/>
</linearGradient>
</defs>
</svg>
