<svg width="44.000000" height="30.904785" viewBox="0 0 44 30.9048" fill="none" xmlns="http://www.w3.org/2000/svg" xmlns:xlink="http://www.w3.org/1999/xlink">
	<desc>
			Created with Pixso.
	</desc>
	<defs/>
	<rect id="Vector" rx="-0.500000" width="43.000000" height="29.904839" transform="translate(0.500000 0.500000)" fill="#FFFFFF" fill-opacity="0"/>
	<path id="Vector" d="M3.42 0L25.6 0C26.51 0 27.38 0.37 28.02 1.04C28.67 1.7 29.03 2.61 29.03 3.55L29.03 3.87L38.61 3.87C38.96 3.87 39.3 3.98 39.59 4.17C39.89 4.36 40.13 4.63 40.28 4.95L43.8 12.39C43.92 12.65 43.99 12.94 44 13.24L44 24.76C44 25.15 43.85 25.52 43.58 25.8C43.31 26.07 42.95 26.23 42.58 26.23L40.65 26.23C40.44 27.54 39.78 28.72 38.8 29.58C37.83 30.43 36.59 30.9 35.31 30.9C34.03 30.9 32.79 30.43 31.81 29.58C30.84 28.72 30.18 27.54 29.96 26.23L15.06 26.23C14.85 27.54 14.19 28.72 13.21 29.58C12.23 30.43 11 30.9 9.72 30.9C8.44 30.9 7.2 30.43 6.22 29.58C5.25 28.72 4.59 27.54 4.37 26.23L1.91 26.23C1.41 26.23 0.93 26.02 0.57 25.66C0.21 25.29 0 24.8 0 24.28L0 3.56C-0.01 3.1 0.08 2.63 0.25 2.2C0.42 1.77 0.68 1.37 0.99 1.04C1.31 0.71 1.69 0.45 2.11 0.27C2.52 0.09 2.97 0 3.42 0ZM38 6.83L29.03 6.83L29.03 11.65L40.28 11.65L38 6.83ZM35.31 27.96C35.82 27.96 36.33 27.8 36.75 27.51C37.18 27.21 37.52 26.79 37.71 26.3C37.91 25.81 37.96 25.26 37.86 24.74C37.76 24.22 37.52 23.74 37.15 23.36C36.79 22.98 36.33 22.73 35.82 22.62C35.32 22.52 34.79 22.57 34.32 22.78C33.84 22.98 33.44 23.33 33.15 23.77C32.87 24.22 32.72 24.74 32.72 25.27C32.72 25.98 32.99 26.67 33.48 27.17C33.96 27.67 34.62 27.96 35.31 27.96ZM35.31 19.64C36.42 19.64 37.5 19.99 38.41 20.65C39.31 21.31 40.01 22.24 40.39 23.31L41.16 23.31L41.16 14.59L29.03 14.59L29.03 23.29L30.23 23.29C30.61 22.21 31.31 21.28 32.21 20.63C33.12 19.97 34.2 19.62 35.31 19.62L35.31 19.64ZM9.72 27.96C10.24 27.96 10.74 27.8 11.17 27.51C11.6 27.21 11.93 26.79 12.13 26.3C12.33 25.81 12.38 25.26 12.28 24.74C12.18 24.22 11.93 23.74 11.57 23.36C11.21 22.98 10.74 22.73 10.24 22.62C9.73 22.52 9.21 22.57 8.73 22.78C8.26 22.98 7.85 23.33 7.57 23.77C7.28 24.22 7.13 24.74 7.13 25.27C7.14 25.98 7.41 26.67 7.9 27.17C8.38 27.67 9.04 27.96 9.72 27.96ZM2.83 23.29L4.64 23.29C5.03 22.21 5.72 21.28 6.63 20.62C7.54 19.97 8.62 19.61 9.73 19.61C10.84 19.61 11.92 19.97 12.83 20.62C13.74 21.28 14.43 22.21 14.81 23.29L26.17 23.29L26.17 3.56C26.17 3.4 26.1 3.25 25.99 3.13C25.88 3.02 25.73 2.96 25.58 2.95L3.42 2.95C3.27 2.96 3.12 3.02 3.01 3.13C2.9 3.25 2.84 3.4 2.83 3.56L2.83 23.29Z" fill="#0D2612" fill-opacity="1.000000" fill-rule="nonzero"/>
</svg>
