<svg width="42.000000" height="40.566895" viewBox="0 0 42 40.5669" fill="none" xmlns="http://www.w3.org/2000/svg" xmlns:xlink="http://www.w3.org/1999/xlink">
	<desc>
			Created with Pixso.
	</desc>
	<defs>
		<clipPath id="clip7_4088">
			<rect id="fi-bs-shield-check" rx="-0.500000" width="41.000000" height="39.566902" transform="translate(0.500000 0.500000)" fill="white" fill-opacity="0"/>
		</clipPath>
	</defs>
	<rect id="fi-bs-shield-check" rx="-0.500000" width="41.000000" height="39.566902" transform="translate(0.500000 0.500000)" fill="#FFFFFF" fill-opacity="0"/>
	<g clip-path="url(#clip7_4088)">
		<path id="Vector" d="M19.53 19.76L16.45 16.67L12.66 20.18L16.51 24.05C16.89 24.44 17.35 24.75 17.85 24.96C18.35 25.18 18.89 25.29 19.44 25.3L19.51 25.3C20.6 25.3 21.64 24.88 22.42 24.14L31.2 15.65L27.49 12.06L19.53 19.76Z" fill="#0D2612" fill-opacity="1.000000" fill-rule="nonzero"/>
		<path id="Vector" d="M20.86 40.56L19.93 40.16C19.26 39.87 3.5 32.95 3.5 20.28L3.5 9.33C3.5 8.27 3.84 7.23 4.49 6.37C5.13 5.5 6.04 4.86 7.09 4.52L21 0.04L34.91 4.52C35.95 4.86 36.86 5.5 37.51 6.37C38.15 7.23 38.5 8.27 38.5 9.33L38.5 20.28C38.5 34.71 22.5 40.02 21.82 40.24L20.86 40.56ZM21 5.39L8.75 9.33L8.75 20.28C8.75 28.17 18.1 33.54 21.13 35.07C24.18 33.84 33.25 29.42 33.25 20.28L33.25 9.33L21 5.39Z" fill="#0D2612" fill-opacity="1.000000" fill-rule="nonzero"/>
	</g>
</svg>
