<svg width="44.222656" height="50.536499" viewBox="0 0 44.2227 50.5365" fill="none" xmlns="http://www.w3.org/2000/svg" xmlns:xlink="http://www.w3.org/1999/xlink">
	<desc>
			Created with Pixso.
	</desc>
	<defs/>
	<path id="Ellipse 35" d="M43.5 25.72C36.38 54.77 35.36 52.83 32.29 46.99C30.35 43.32 27.6 38.09 22 38.09C9.84 38.09 0 32.82 0 20.8C0 8.77 9.84 0 22 0C34.15 0 47.5 9.39 43.5 25.72ZM25.78 34.67Q23.98 34.09 22 34.09Q13.55 34.09 8.75 30.69Q7 29.44 5.89 27.77Q4 24.91 4 20.8Q4 17 5.44 13.87Q6.73 11.08 9.16 8.82Q11.03 7.08 13.22 5.97Q17.11 4 22 4Q27.31 4 31.46 6.19Q33.91 7.49 35.96 9.55Q38.15 11.76 39.22 14.41Q41.04 18.94 39.61 24.77Q36.53 37.35 34.68 43.06Q32.96 40.07 31.46 38.45Q28.9 35.68 25.78 34.67Z" fill="#0D2612" fill-opacity="1.000000" fill-rule="evenodd"/>
	<path id="?" d="M19.86 20.53L19.84 20.74Q19.84 21.26 19.87 21.51Q19.91 21.75 20.09 22.07Q20.1 22.08 20.11 22.09Q20.29 22.38 20.73 22.51Q21.19 22.64 21.94 22.64Q22.69 22.64 23.15 22.52Q23.61 22.4 23.8 22.13Q23.99 21.86 24.03 21.62Q24.07 21.39 24.07 20.95L24.49 20.82Q25.47 20.45 26.62 19.36Q27.19 18.82 27.59 17.87Q27.61 17.83 27.62 17.79Q28 16.87 28 15.8Q28 14.86 27.72 14.02Q27.3 12.75 26.25 11.69Q25.68 11.11 25 10.72Q23.61 9.92 21.76 9.92Q20.46 9.92 19.39 10.35Q18.32 10.78 17.74 11.29Q17.16 11.8 16.7 12.47Q16.24 13.15 16.14 13.42Q16.04 13.69 15.88 14.1Q15.72 14.5 15.72 14.89Q15.72 14.98 15.74 15.07Q15.88 15.84 17.28 16.37Q18.09 16.68 18.58 16.68Q18.87 16.68 19.1 16.56Q19.26 16.48 19.39 16.33Q19.7 15.98 19.94 15.31L20.01 14.99Q20.12 14.68 20.57 14.38Q21.03 14.08 21.99 14.08Q22.95 14.08 23.43 14.55Q23.51 14.62 23.57 14.7Q23.92 15.15 23.92 15.86Q23.92 16.33 23.72 16.69Q23.56 16.98 23.28 17.2Q22.85 17.54 22.36 17.74Q22.13 17.84 21.89 17.91Q21.13 18.11 20.5 18.77Q20.39 18.87 20.31 18.98Q19.86 19.59 19.86 20.53ZM19.8 25.26Q19.76 25.31 19.73 25.38Q19.52 25.78 19.48 26.1Q19.44 26.41 19.44 27L19.44 27.42Q19.44 28.48 19.89 28.93Q20.48 29.47 21.6 29.47Q22.72 29.47 23.25 29.31Q23.5 29.23 23.69 29.07Q23.91 28.9 24.04 28.63Q24.3 28.12 24.3 27.08Q24.3 25.63 23.8 25.12Q23.29 24.61 22.15 24.61Q21 24.61 20.47 24.8Q20.02 24.94 19.8 25.26Z" fill="#0D2612" fill-opacity="1.000000" fill-rule="evenodd"/>
</svg>
