<svg width="31" height="31" viewBox="0 0 31 31" fill="none" xmlns="http://www.w3.org/2000/svg">
<g clip-path="url(#clip0_517_1284)">
<path d="M25.6699 0.0625H6.16992C3.27043 0.0625 0.919922 2.413 0.919922 5.3125V24.8125C0.919922 27.712 3.27043 30.0625 6.16992 30.0625H25.6699C28.5694 30.0625 30.9199 27.712 30.9199 24.8125V5.3125C30.9199 2.413 28.5694 0.0625 25.6699 0.0625Z" fill="#007FB5"/>
<path d="M9.3666 11.0977H5.13379V26.4352H9.3666V11.0977Z" fill="white"/>
<path d="M23.5139 11.0965C20.392 9.90584 18.1326 11.9215 17.167 13.0465V11.0965H12.9482V26.434H17.167V18.3433C17.143 17.3179 17.5177 16.3231 18.2123 15.5683C18.4106 15.3349 18.6549 15.145 18.9299 15.0103C19.2049 14.8756 19.5048 14.7991 19.8107 14.7855C20.1529 14.779 20.4929 14.8416 20.8103 14.9697C21.1276 15.0977 21.4158 15.2886 21.6576 15.5308C22.1819 16.0787 22.4683 16.8117 22.4545 17.5699V26.434H27.217V16.9371C27.217 16.9371 27.7467 12.6808 23.5139 11.0965Z" fill="white"/>
<path d="M7.24824 8.97891C8.70834 8.97891 9.89199 7.79526 9.89199 6.33516C9.89199 4.87505 8.70834 3.69141 7.24824 3.69141C5.78814 3.69141 4.60449 4.87505 4.60449 6.33516C4.60449 7.79526 5.78814 8.97891 7.24824 8.97891Z" fill="white"/>
</g>
<defs>
<clipPath id="clip0_517_1284">
<rect width="30" height="30" fill="white" transform="translate(0.919922 0.0625)"/>
</clipPath>
</defs>
</svg>
