<svg width="31" height="31" viewBox="0 0 31 31" fill="none" xmlns="http://www.w3.org/2000/svg">
<path d="M15.9201 2.26172C12.4438 2.26172 12.0079 2.27645 10.6427 2.33875C9.28026 2.40094 8.34979 2.61728 7.53556 2.93373C6.69385 3.26084 5.98003 3.69851 5.26844 4.4101C4.55686 5.12168 4.11918 5.83551 3.79207 6.67722C3.47563 7.49139 3.25928 8.42186 3.19709 9.78427C3.1348 11.1495 3.12012 11.5854 3.12012 15.0617C3.12012 18.5379 3.1348 18.9738 3.19709 20.3391C3.25928 21.7015 3.47563 22.632 3.79207 23.4461C4.11918 24.2878 4.55686 25.0017 5.26844 25.7133C5.98003 26.4249 6.69385 26.8626 7.53556 27.1897C8.34979 27.5061 9.28026 27.7225 10.6427 27.7846C12.0079 27.8469 12.4438 27.8616 15.9201 27.8616C19.3963 27.8616 19.8322 27.8469 21.1975 27.7846C22.5599 27.7225 23.4904 27.5061 24.3045 27.1897C25.1462 26.8626 25.8601 26.4249 26.5717 25.7133C27.2833 25.0017 27.721 24.2878 28.0481 23.4461C28.3645 22.632 28.5809 21.7015 28.643 20.3391C28.7053 18.9738 28.72 18.5379 28.72 15.0617C28.72 11.5854 28.7053 11.1495 28.643 9.78427C28.5809 8.42186 28.3645 7.49139 28.0481 6.67722C27.721 5.83551 27.2833 5.12168 26.5717 4.4101C25.8601 3.69851 25.1462 3.26084 24.3045 2.93373C23.4904 2.61728 22.5599 2.40094 21.1975 2.33875C19.8322 2.27645 19.3963 2.26172 15.9201 2.26172ZM15.9201 4.56806C19.3378 4.56806 19.7426 4.58107 21.0924 4.64265C22.3403 4.69961 23.0181 4.90813 23.4691 5.08337C24.0666 5.31557 24.493 5.59299 24.9409 6.04088C25.3888 6.48876 25.6662 6.91521 25.8984 7.51263C26.0737 7.96366 26.2822 8.64141 26.3391 9.88939C26.4007 11.2391 26.4137 11.6439 26.4137 15.0617C26.4137 18.4794 26.4007 18.8843 26.3391 20.234C26.2822 21.4819 26.0737 22.1597 25.8984 22.6107C25.6662 23.2082 25.3888 23.6346 24.9409 24.0825C24.493 24.5304 24.0666 24.8078 23.4691 25.04C23.0181 25.2153 22.3403 25.4238 21.0924 25.4807C19.7429 25.5423 19.3381 25.5553 15.9201 25.5553C12.5021 25.5553 12.0973 25.5423 10.7478 25.4807C9.49981 25.4238 8.82206 25.2153 8.37103 25.04C7.77356 24.8078 7.34716 24.5304 6.89923 24.0825C6.45134 23.6346 6.17392 23.2082 5.94177 22.6107C5.76648 22.1597 5.55796 21.4819 5.501 20.234C5.43942 18.8843 5.42641 18.4794 5.42641 15.0617C5.42641 11.6439 5.43942 11.2391 5.501 9.88939C5.55796 8.64141 5.76648 7.96366 5.94177 7.51263C6.17392 6.91521 6.45134 6.48876 6.89923 6.04088C7.34716 5.59299 7.77356 5.31557 8.37103 5.08337C8.82206 4.90813 9.49981 4.69961 10.7478 4.64265C12.0975 4.58107 12.5023 4.56806 15.9201 4.56806Z" fill="#D9D9D9"/>
<path d="M15.9197 19.3279C13.5632 19.3279 11.653 17.4176 11.653 15.0613C11.653 12.7048 13.5632 10.7946 15.9197 10.7946C18.276 10.7946 20.1863 12.7048 20.1863 15.0613C20.1863 17.4176 18.276 19.3279 15.9197 19.3279ZM15.9197 8.48828C12.2895 8.48828 9.34668 11.4311 9.34668 15.0613C9.34668 18.6914 12.2895 21.6342 15.9197 21.6342C19.5498 21.6342 22.4926 18.6914 22.4926 15.0613C22.4926 11.4311 19.5498 8.48828 15.9197 8.48828Z" fill="#D9D9D9"/>
<path d="M24.2888 8.22933C24.2888 9.07765 23.6011 9.7653 22.7528 9.7653C21.9045 9.7653 21.2168 9.07765 21.2168 8.22933C21.2168 7.38101 21.9045 6.69336 22.7528 6.69336C23.6011 6.69336 24.2888 7.38101 24.2888 8.22933Z" fill="#D9D9D9"/>
</svg>
