<svg width="33" height="33" viewBox="0 0 33 33" fill="none" xmlns="http://www.w3.org/2000/svg">
<g clip-path="url(#clip0_517_1282)">
<path d="M32.9129 6.1395C31.7359 6.6625 30.4719 7.0155 29.1429 7.1725C30.4979 6.3605 31.5389 5.0745 32.0299 3.5425C30.7609 4.2935 29.3569 4.8415 27.8619 5.1345C26.6639 3.8595 24.9579 3.0625 23.0689 3.0625C19.4439 3.0625 16.5069 6.0005 16.5069 9.6255C16.5069 10.1395 16.5639 10.6415 16.6759 11.1215C11.2209 10.8475 6.3849 8.2345 3.1469 4.2635C2.5829 5.2335 2.2589 6.3605 2.2589 7.5635C2.2589 9.8415 3.4179 11.8495 5.1779 13.0275C4.1029 12.9925 3.0909 12.6985 2.2059 12.2065C2.2049 12.2335 2.2049 12.2625 2.2049 12.2885C2.2049 15.4695 4.4669 18.1225 7.4699 18.7255C6.9199 18.8745 6.3399 18.9555 5.7409 18.9555C5.3169 18.9555 4.9069 18.9145 4.5069 18.8385C5.3409 21.4445 7.7659 23.3425 10.6369 23.3965C8.3919 25.1565 5.5619 26.2075 2.4869 26.2075C1.9569 26.2075 1.4339 26.1765 0.920898 26.1155C3.8249 27.9755 7.2749 29.0625 10.9819 29.0625C23.0539 29.0625 29.6569 19.0615 29.6569 10.3875C29.6569 10.1035 29.6489 9.8195 29.6369 9.5375C30.9199 8.6125 32.0319 7.4575 32.9129 6.1395Z" fill="#55ACEE"/>
</g>
<defs>
<clipPath id="clip0_517_1282">
<rect width="32" height="32" fill="white" transform="translate(0.919922 0.0625)"/>
</clipPath>
</defs>
</svg>
